HIERARCHY
ROOT Hips
{
	OFFSET 0.000000 100.481300 0.000000
	CHANNELS 6 Xposition Yposition Zposition Xrotation Yrotation Zrotation
	JOINT Spine
	{
		OFFSET -0.279200 12.230698 -2.892100
		CHANNELS 3 Xrotation Yrotation Zrotation
		JOINT Spine1
		{
			OFFSET -0.325700 14.269203 -3.374200
			CHANNELS 3 Xrotation Yrotation Zrotation
			JOINT Spine2
			{
				OFFSET -0.372300 16.307602 -0.352600
				CHANNELS 3 Xrotation Yrotation Zrotation
				JOINT Neck
				{
					OFFSET -0.418800 17.814194 8.416900
					CHANNELS 3 Xrotation Yrotation Zrotation
					JOINT Head
					{
						OFFSET 0.000000 7.031097 3.806800
						CHANNELS 3 Xrotation Yrotation Zrotation
						JOINT HeadTop_End
						{
							OFFSET 0.000000 24.646606 12.978600
							CHANNELS 3 Xrotation Yrotation Zrotation
							End Site
							{
								OFFSET 0.000000 27.854965 0.000000
							}
						}
					}
				}
				JOINT LeftShoulder
				{
					OFFSET 16.952999 14.495407 -7.737500
					CHANNELS 3 Xrotation Yrotation Zrotation
					JOINT LeftArm
					{
						OFFSET 9.308998 -2.777710 0.208600
						CHANNELS 3 Xrotation Yrotation Zrotation
						JOINT LeftForeArm
						{
							OFFSET 29.972298 0.000000 0.000000
							CHANNELS 3 Xrotation Yrotation Zrotation
							JOINT LeftHand
							{
								OFFSET 26.026505 0.000000 0.000000
								CHANNELS 3 Xrotation Yrotation Zrotation
								JOINT LeftHandThumb1
								{
									OFFSET 12.240501 -7.147949 9.207150
									CHANNELS 3 Xrotation Yrotation Zrotation
									JOINT LeftHandThumb2
									{
										OFFSET 4.138618 -2.389435 2.389433
										CHANNELS 3 Xrotation Yrotation Zrotation
										JOINT LeftHandThumb3
										{
											OFFSET 2.726913 -1.574387 1.574386
											CHANNELS 3 Xrotation Yrotation Zrotation
											JOINT LeftHandThumb4
											{
												OFFSET 3.941010 -2.275345 2.275342
												CHANNELS 3 Xrotation Yrotation Zrotation
												End Site
												{
													OFFSET -0.005798 5.087799 0.009903
												}
											}
										}
									}
								}
								JOINT LeftHandIndex1
								{
									OFFSET 24.424698 -1.985611 5.953459
									CHANNELS 3 Xrotation Yrotation Zrotation
									JOINT LeftHandIndex2
									{
										OFFSET 6.426697 0.000000 0.000000
										CHANNELS 3 Xrotation Yrotation Zrotation
										JOINT LeftHandIndex3
										{
											OFFSET 5.337898 0.000000 0.000000
											CHANNELS 3 Xrotation Yrotation Zrotation
											JOINT LeftHandIndex4
											{
												OFFSET 4.409401 0.000000 0.000000
												CHANNELS 3 Xrotation Yrotation Zrotation
												End Site
												{
													OFFSET 0.000000 4.409363 0.014373
												}
											}
										}
									}
								}
								JOINT LeftHandMiddle1
								{
									OFFSET 23.810104 0.000000 0.000000
									CHANNELS 3 Xrotation Yrotation Zrotation
									JOINT LeftHandMiddle2
									{
										OFFSET 7.176498 0.000000 0.000000
										CHANNELS 3 Xrotation Yrotation Zrotation
										JOINT LeftHandMiddle3
										{
											OFFSET 6.774902 0.000000 0.000000
											CHANNELS 3 Xrotation Yrotation Zrotation
											JOINT LeftHandMiddle4
											{
												OFFSET 5.403328 0.000000 0.000000
												CHANNELS 3 Xrotation Yrotation Zrotation
												End Site
												{
													OFFSET -0.027702 5.403244 0.017414
												}
											}
										}
									}
								}
								JOINT LeftHandRing1
								{
									OFFSET 22.908401 -0.839279 -6.020567
									CHANNELS 3 Xrotation Yrotation Zrotation
									JOINT LeftHandRing2
									{
										OFFSET 6.337502 0.000000 0.000000
										CHANNELS 3 Xrotation Yrotation Zrotation
										JOINT LeftHandRing3
										{
											OFFSET 5.779297 0.000000 0.000000
											CHANNELS 3 Xrotation Yrotation Zrotation
											JOINT LeftHandRing4
											{
												OFFSET 4.965698 0.000000 0.000000
												CHANNELS 3 Xrotation Yrotation Zrotation
												End Site
												{
													OFFSET 0.000000 4.965668 0.016186
												}
											}
										}
									}
								}
								JOINT LeftHandPinky1
								{
									OFFSET 20.037003 -1.530319 -10.950146
									CHANNELS 3 Xrotation Yrotation Zrotation
									JOINT LeftHandPinky2
									{
										OFFSET 5.254700 0.000000 0.000000
										CHANNELS 3 Xrotation Yrotation Zrotation
										JOINT LeftHandPinky3
										{
											OFFSET 4.810204 0.000000 0.000000
											CHANNELS 3 Xrotation Yrotation Zrotation
											JOINT LeftHandPinky4
											{
												OFFSET 3.647202 0.000000 0.000000
												CHANNELS 3 Xrotation Yrotation Zrotation
												End Site
												{
													OFFSET 0.000000 3.647186 0.011889
												}
											}
										}
									}
								}
							}
						}
					}
				}
				JOINT RightShoulder
				{
					OFFSET -15.141001 14.495407 -7.737500
					CHANNELS 3 Xrotation Yrotation Zrotation
					JOINT RightArm
					{
						OFFSET -9.308998 -2.777710 0.208500
						CHANNELS 3 Xrotation Yrotation Zrotation
						JOINT RightForeArm
						{
							OFFSET -29.972300 0.000000 0.000000
							CHANNELS 3 Xrotation Yrotation Zrotation
							JOINT RightHand
							{
								OFFSET -26.026505 0.000000 0.000000
								CHANNELS 3 Xrotation Yrotation Zrotation
								JOINT RightHandThumb1
								{
									OFFSET -12.240601 -7.148026 9.207092
									CHANNELS 3 Xrotation Yrotation Zrotation
									JOINT RightHandThumb2
									{
										OFFSET -4.138618 -2.389435 2.389433
										CHANNELS 3 Xrotation Yrotation Zrotation
										JOINT RightHandThumb3
										{
											OFFSET -2.726974 -1.574417 1.574421
											CHANNELS 3 Xrotation Yrotation Zrotation
											JOINT RightHandThumb4
											{
												OFFSET -3.941010 -2.275345 2.275343
												CHANNELS 3 Xrotation Yrotation Zrotation
												End Site
												{
													OFFSET 0.005814 5.087799 0.009927
												}
											}
										}
									}
								}
								JOINT RightHandIndex1
								{
									OFFSET -24.424698 -1.985657 5.953444
									CHANNELS 3 Xrotation Yrotation Zrotation
									JOINT RightHandIndex2
									{
										OFFSET -6.426697 0.000000 0.000000
										CHANNELS 3 Xrotation Yrotation Zrotation
										JOINT RightHandIndex3
										{
											OFFSET -5.337898 0.000000 0.000000
											CHANNELS 3 Xrotation Yrotation Zrotation
											JOINT RightHandIndex4
											{
												OFFSET -4.409401 0.000000 0.000000
												CHANNELS 3 Xrotation Yrotation Zrotation
												End Site
												{
													OFFSET 0.000000 4.409363 0.014408
												}
											}
										}
									}
								}
								JOINT RightHandMiddle1
								{
									OFFSET -23.810097 0.000000 0.000000
									CHANNELS 3 Xrotation Yrotation Zrotation
									JOINT RightHandMiddle2
									{
										OFFSET -7.176498 0.000000 0.000000
										CHANNELS 3 Xrotation Yrotation Zrotation
										JOINT RightHandMiddle3
										{
											OFFSET -6.774902 0.000000 0.000000
											CHANNELS 3 Xrotation Yrotation Zrotation
											JOINT RightHandMiddle4
											{
												OFFSET -5.403328 0.000000 0.000000
												CHANNELS 3 Xrotation Yrotation Zrotation
												End Site
												{
													OFFSET 0.027702 5.403244 0.017457
												}
											}
										}
									}
								}
								JOINT RightHandRing1
								{
									OFFSET -22.908302 -0.839325 -6.020576
									CHANNELS 3 Xrotation Yrotation Zrotation
									JOINT RightHandRing2
									{
										OFFSET -6.337502 0.000000 0.000000
										CHANNELS 3 Xrotation Yrotation Zrotation
										JOINT RightHandRing3
										{
											OFFSET -5.779297 0.000000 0.000000
											CHANNELS 3 Xrotation Yrotation Zrotation
											JOINT RightHandRing4
											{
												OFFSET -4.965698 0.000000 0.000000
												CHANNELS 3 Xrotation Yrotation Zrotation
												End Site
												{
													OFFSET 0.000000 4.965668 0.016226
												}
											}
										}
									}
								}
								JOINT RightHandPinky1
								{
									OFFSET -20.037003 -1.530334 -10.950259
									CHANNELS 3 Xrotation Yrotation Zrotation
									JOINT RightHandPinky2
									{
										OFFSET -5.254700 0.000000 0.000000
										CHANNELS 3 Xrotation Yrotation Zrotation
										JOINT RightHandPinky3
										{
											OFFSET -4.810204 0.000000 0.000000
											CHANNELS 3 Xrotation Yrotation Zrotation
											JOINT RightHandPinky4
											{
												OFFSET -3.647202 0.000000 0.000000
												CHANNELS 3 Xrotation Yrotation Zrotation
												End Site
												{
													OFFSET 0.000000 3.647186 0.011917
												}
											}
										}
									}
								}
							}
						}
					}
				}
			}
		}
	}
	JOINT LeftUpLeg
	{
		OFFSET 15.427100 -6.655098 0.678600
		CHANNELS 3 Xrotation Yrotation Zrotation
		JOINT LeftLeg
		{
			OFFSET 4.081073 -39.591068 13.024000
			CHANNELS 3 Xrotation Yrotation Zrotation
			JOINT LeftFoot
			{
				OFFSET -4.081074 -37.707932 -15.979700
				CHANNELS 3 Xrotation Yrotation Zrotation
				JOINT LeftToeBase
				{
					OFFSET 5.346399 -15.068900 20.645000
					CHANNELS 3 Xrotation Yrotation Zrotation
					JOINT LeftToe_End
					{
						OFFSET 2.754700 0.931300 11.300900
						CHANNELS 3 Xrotation Yrotation Zrotation
						End Site
						{
							OFFSET 0.000000 11.669021 0.000000
						}
					}
				}
			}
		}
	}
	JOINT RightUpLeg
	{
		OFFSET -15.569500 -6.655098 0.678600
		CHANNELS 3 Xrotation Yrotation Zrotation
		JOINT RightLeg
		{
			OFFSET -4.081825 -39.591045 13.023800
			CHANNELS 3 Xrotation Yrotation Zrotation
			JOINT RightFoot
			{
				OFFSET 4.081824 -37.707954 -15.979600
				CHANNELS 3 Xrotation Yrotation Zrotation
				JOINT RightToeBase
				{
					OFFSET -5.346400 -15.068900 20.645000
					CHANNELS 3 Xrotation Yrotation Zrotation
					JOINT RightToe_End
					{
						OFFSET -2.754700 0.931300 11.300900
						CHANNELS 3 Xrotation Yrotation Zrotation
						End Site
						{
							OFFSET 0.000000 11.669021 0.000000
						}
					}
				}
			}
		}
	}
}
MOTION
Frames: 4
Frame Time: 0.033333
2.160596 64.713341 -0.820372 16.713492 -17.257357 -2.254256 11.288871 17.225563 -10.276956 2.869509 4.087946 -0.126405 2.861626 4.312290 -0.311448 -0.688867 -2.356465 4.369683 -6.951128 -9.322003 11.106345 0.000001 -0.000000 -0.000000 1.124709 -1.331172 -15.116518 -9.590833 31.513205 -40.008373 0.000004 -10.721311 0.000006 15.668201 -19.583457 20.990269 -5.456658 -6.701466 3.223913 8.086120 27.604269 1.097673 -10.019719 -14.016704 7.739665 -0.000001 -0.000002 0.000001 -1.866392 -6.065077 -12.588941 0.237182 1.651682 -16.342778 0.250137 1.695197 -16.786214 0.000000 -0.000001 -0.000000 -1.264338 -0.680480 -18.650048 0.387938 2.098231 -20.947898 0.466476 2.292750 -22.997836 0.000001 0.000000 0.000001 0.028219 3.645196 -26.113056 0.502171 2.375016 -23.874335 0.587674 2.559335 -25.860498 0.000003 -0.000002 0.000000 0.229214 4.355125 -33.121145 0.780416 2.923324 -29.888662 0.780019 2.922624 -29.880858 -0.000001 0.000002 -0.000001 2.870352 11.957092 -6.152312 -33.803675 70.877583 6.927823 -0.000189 94.709555 0.000169 17.111796 20.467031 -11.105444 -15.299427 26.937083 3.983097 9.848960 -45.623277 -5.470739 -7.056232 3.101009 -14.195948 0.000001 -0.000001 0.000003 0.533550 -4.800788 13.845674 0.169905 -1.247743 15.507868 0.169801 -1.247383 15.503206 -0.000001 0.000000 -0.000002 1.563075 -5.995152 32.822880 0.816457 -2.636008 34.413642 0.910237 -2.767788 36.402849 -0.000002 -0.000000 -0.000000 2.328214 -6.522349 43.827463 1.218018 -3.142189 42.367872 1.329181 -3.259704 44.358455 -0.000000 0.000001 -0.000001 3.134759 -6.888107 54.105145 1.765792 -3.652474 51.591458 1.765230 -3.652021 51.582658 -0.000000 0.000002 0.000004 -88.381145 -2.003327 2.762670 44.381500 11.631672 0.227451 21.296047 26.699254 10.749449 -4.481349 0.000016 0.000002 -0.000000 0.000000 0.000000 26.061743 -5.827771 4.491540 33.951125 -6.465116 11.588760 -38.378273 -19.890315 14.061983 -42.282392 -0.000024 -0.000012 -0.000001 -0.000002 -0.000000 
0.619657 63.019470 -0.161728 20.827822 -15.292532 1.544216 10.015279 15.878303 -10.628576 3.329156 4.851182 -2.346548 3.317444 5.043906 -2.498157 -0.010150 -2.852082 3.976003 -7.232516 -12.895202 12.105519 -0.000001 -0.000001 0.000000 0.986138 -1.914959 -15.886933 -11.569424 32.239948 -35.965905 0.000003 -15.065072 0.000009 15.519658 -20.580309 23.887555 -5.457395 -6.960912 2.704119 6.931945 27.888552 2.596297 -10.046946 -14.072271 7.972942 -0.000001 0.000003 0.000000 -1.631569 -6.203858 -11.340083 0.212268 1.564236 -15.454787 0.217694 1.583719 -15.652377 0.000000 0.000000 -0.000000 -1.142185 -0.711965 -17.224953 0.346371 1.986335 -19.781715 0.264608 1.742431 -17.268689 -0.000000 0.000004 0.000001 0.091397 3.681308 -24.288071 0.449664 2.252755 -22.573936 0.489678 2.346601 -23.570966 0.000000 -0.000001 0.000001 0.463251 4.709336 -31.085188 0.698183 2.775537 -28.234547 0.655898 2.695393 -27.348634 -0.000001 0.000002 -0.000001 2.332885 12.450293 -5.804443 -35.980668 69.777028 13.329930 -0.000447 93.799869 0.000446 21.629442 23.631321 -11.702507 -15.311271 26.887844 2.982679 9.779873 -44.807796 -5.425350 -7.056233 3.101013 -14.195945 -0.000001 -0.000001 0.000001 0.455199 -4.280934 13.588213 0.151623 -1.179888 14.644996 0.153256 -1.186129 14.724039 -0.000000 0.000000 0.000000 1.485003 -5.927956 31.608698 0.730471 -2.506019 32.496896 0.818136 -2.638480 34.450385 -0.000001 -0.000000 -0.000000 2.208863 -6.453570 42.203640 1.098978 -3.006691 40.148634 1.213083 -3.136774 42.277672 0.000001 -0.000000 -0.000002 2.967238 -6.827902 52.010272 1.611683 -3.525060 49.129824 1.620855 -3.532943 49.278756 -0.000002 0.000001 0.000001 -93.602265 -1.187584 1.034853 46.136688 12.266153 0.211542 21.924516 26.576297 8.984756 -4.481350 0.000005 0.000001 0.000000 -0.000002 -0.000000 22.627647 -4.185269 4.894367 35.380284 -6.400457 10.902621 -42.114318 -21.429022 11.468054 -40.556516 -0.000021 0.000001 -0.000001 0.000001 0.000000 
-2.010435 62.391586 1.616829 24.622024 -10.868998 4.595936 8.678536 13.871985 -10.665024 4.426555 5.156236 -4.548157 4.408087 5.304994 -4.669437 0.582838 -3.185340 2.253953 -6.121149 -17.724122 15.507465 0.000002 -0.000001 0.000000 0.733783 -3.356630 -20.152463 -15.702216 30.163796 -27.010861 -0.000009 -20.339236 -0.000007 16.892916 -21.706819 27.427639 -5.445121 -7.194022 2.133953 5.656332 28.150877 4.240420 -10.074647 -14.129529 8.211602 -0.000000 -0.000001 0.000001 -1.374870 -6.341184 -9.997759 0.187425 1.471471 -14.517058 0.184223 1.459035 -14.391694 -0.000000 -0.000001 -0.000000 -1.012630 -0.755745 -15.630837 0.303495 1.862865 -18.504864 0.119316 1.177546 -11.570915 -0.000000 0.000001 -0.000000 0.139246 3.694820 -22.218144 0.397159 2.122147 -21.198312 0.391068 2.106372 -21.033156 -0.000002 -0.000001 0.000000 0.687434 5.125535 -28.784118 0.613887 2.612647 -26.441228 0.529079 2.434843 -24.515470 0.000001 -0.000000 0.000000 1.769228 12.919870 -5.481531 -35.362598 68.752028 17.695868 -0.000919 93.016576 0.000924 26.457351 26.653968 -13.185829 -15.315705 26.833091 1.926424 9.707395 -43.951598 -5.376894 -7.056233 3.101012 -14.195950 -0.000001 0.000003 -0.000001 0.378245 -3.734264 13.318574 0.133532 -1.108378 13.738961 0.136786 -1.121587 13.905910 -0.000002 0.000000 -0.000000 1.404594 -5.855626 30.334011 0.644925 -2.366495 30.484661 0.726260 -2.499403 32.400645 0.000001 0.000000 0.000001 2.085722 -6.377777 40.498937 0.979759 -2.859565 37.818966 1.096086 -3.003245 40.093337 -0.000000 0.000000 0.000000 2.793877 -6.758187 49.811152 1.455945 -3.384269 46.545659 1.474537 -3.401777 46.860196 -0.000000 0.000000 -0.000001 -97.303688 0.421465 -1.724327 47.362055 11.470994 0.262728 21.754390 26.412249 6.809275 -4.481349 0.000002 0.000004 0.000000 -0.000001 -0.000000 17.801157 -2.448467 5.167961 38.863414 -5.618826 11.412724 -35.951602 -23.546059 12.710955 -43.166946 -0.000003 0.000013 0.000001 -0.000002 -0.000001 
-4.998412 62.422668 3.898380 29.653376 -5.442670 6.935807 7.417685 10.829427 -11.186531 5.668874 5.506588 -6.720731 5.638357 5.630802 -6.800244 0.916525 -3.645161 1.203000 -5.195071 -22.268269 18.996078 0.000001 0.000001 -0.000000 0.314152 -5.803378 -23.526441 -19.408345 27.002753 -19.326804 -0.000004 -26.244213 0.000008 20.153728 -23.953588 31.461730 -5.417186 -7.400918 1.519022 4.290893 28.372377 5.993239 -10.102734 -14.188299 8.455020 0.000001 0.000000 0.000000 -1.105821 -6.479813 -8.600079 0.163130 1.374261 -13.538664 0.151120 1.323355 -13.027981 0.000001 0.000000 -0.000002 -0.877315 -0.806064 -13.899294 0.260656 1.729667 -17.138140 0.032467 0.616539 -6.027736 0.000000 0.000001 -0.000000 0.173181 3.691611 -19.949121 0.345681 1.984398 -19.761571 0.296674 1.842375 -18.293946 -0.000000 -0.000001 -0.000001 0.884058 5.600622 -26.266911 0.529909 2.436662 -24.534974 0.406085 2.145007 -21.438178 0.000001 -0.000001 0.000000 1.215994 13.376283 -5.210200 -32.897644 67.996705 20.201388 -0.002107 92.177221 0.002028 31.241453 29.421890 -15.339305 -15.311802 26.772728 0.823460 9.632158 -43.062499 -5.325731 -7.056232 3.101010 -14.195946 -0.000001 0.000001 0.000002 0.304078 -3.165767 13.039262 0.115946 -1.033798 12.798175 0.120652 -1.054313 13.056380 0.000000 -0.000002 -0.000000 1.322846 -5.778674 29.010624 0.561342 -2.218527 28.395516 0.636190 -2.351615 30.272590 -0.000000 0.000001 0.000003 1.960325 -6.295247 38.729187 0.862402 -2.701798 35.400375 0.980082 -2.859985 37.825591 -0.000002 0.000000 -0.000000 2.616867 -6.678856 47.528117 1.301132 -3.230814 43.863004 1.328655 -3.259171 44.349426 0.000002 -0.000002 -0.000001 -101.343465 2.063522 -4.620273 47.678661 10.017883 0.315502 21.402968 26.289215 4.474863 -4.481357 -0.000011 -0.000003 -0.000000 0.000000 -0.000000 7.680374 -4.177859 3.457105 47.026884 -6.951749 11.221718 -15.464112 -20.570783 19.453038 -52.673852 -0.806592 9.300500 0.000000 0.000001 0.000000 
